<svg width="20" height="22" viewBox="0 0 20 22" fill="none" xmlns="http://www.w3.org/2000/svg">
<mask id="mask0" mask-type="alpha" maskUnits="userSpaceOnUse" x="0" y="3" width="17" height="19">
<path fill-rule="evenodd" clip-rule="evenodd" d="M0.25 3.5H16.6723V21.5H0.25V3.5Z" fill="white"/>
</mask>
<g mask="url(#mask0)">
<path fill-rule="evenodd" clip-rule="evenodd" d="M11.9207 4.85608L4.96925 4.85969C2.86455 4.87235 1.60608 6.17422 1.60608 8.3431V16.657C1.60608 18.8403 2.87631 20.144 5.00179 20.144L11.9532 20.1413C14.0579 20.1287 15.3164 18.825 15.3164 16.657V8.3431C15.3164 6.15976 14.0471 4.85608 11.9207 4.85608ZM5.00273 21.5002C2.16032 21.5002 0.25 19.5537 0.25 16.657V8.34314C0.25 5.42026 2.10065 3.52079 4.96476 3.50362L11.9198 3.5H11.9207C14.7632 3.5 16.6726 5.44648 16.6726 8.34314V16.657C16.6726 19.579 14.8219 21.4794 11.9578 21.4975L5.00273 21.5002Z" fill="#FF5D00"/>
</g>
<path fill-rule="evenodd" clip-rule="evenodd" d="M4.33386 1.5437C5.10811 0.937491 6.07559 0.575195 7.1253 0.575195H15.0418C17.6266 0.575195 19.675 2.75069 19.675 5.37509V15.2749C19.675 16.3479 19.3343 17.3427 18.7559 18.1449C18.5379 18.4473 18.116 18.5157 17.8136 18.2977C17.5112 18.0797 17.4428 17.6578 17.6608 17.3554C18.0765 16.7788 18.325 16.0593 18.325 15.2749V5.37509C18.325 3.44326 16.8291 1.9252 15.0418 1.9252H7.1253C6.3925 1.9252 5.71507 2.17683 5.1661 2.60665C4.87258 2.83647 4.44832 2.78482 4.2185 2.4913C3.98869 2.19777 4.04033 1.77352 4.33386 1.5437Z" fill="#FF5D00"/>
</svg>
